<svg xmlns="http://www.w3.org/2000/svg" width="512" height="512" viewBox="0 0 512 512" role="img" aria-label="AI Writing Toolkit + PDF Publishing icon"
     color-interpolation="sRGB" color-interpolation-filters="sRGB">
  <defs>
    <linearGradient id="bg" x1="0" y1="0" x2="1" y2="1">
      <stop offset="0" stop-color="#0B1220"/>
      <stop offset="1" stop-color="#1E3A8A"/>
    </linearGradient>
    <linearGradient id="accent" x1="0" y1="0" x2="1" y2="1">
      <stop offset="0" stop-color="#60A5FA"/>
      <stop offset="1" stop-color="#34D399"/>
    </linearGradient>
    <filter id="shadow" x="-20%" y="-20%" width="140%" height="140%">
      <feDropShadow dx="0" dy="10" stdDeviation="14" flood-color="#000000" flood-opacity="0.35"/>
    </filter>
  </defs>

  <!-- Rounded square background -->
  <rect x="40" y="40" width="432" height="432" rx="96" fill="url(#bg)"/>

  <!-- Subtle glow -->
  <path d="M120 140 C170 95, 250 85, 320 105 C390 125, 420 185, 408 240 C396 295, 340 330, 280 335 C220 340, 150 320, 120 275 C90 230, 85 175, 120 140 Z"
        fill="#60A5FA" opacity="0.14"/>

  <!-- Document (PDF) -->
  <g filter="url(#shadow)">
    <path d="M170 150 h140 l50 50 v180 a28 28 0 0 1-28 28 H170 a28 28 0 0 1-28-28 V178 a28 28 0 0 1 28-28 z"
          fill="#FFFFFF" opacity="0.98"/>
    <path d="M310 150 v50 a10 10 0 0 0 10 10 h50" fill="#E5E7EB"/>
    <path d="M310 150 l50 50 h-40 a10 10 0 0 1-10-10 z" fill="#D1D5DB"/>
  </g>

  <!-- PDF badge -->
  <g>
    <rect x="182" y="305" width="148" height="54" rx="14" fill="url(#accent)"/>
    <text x="256" y="342" text-anchor="middle"
          font-family="Inter, Segoe UI, Arial, sans-serif"
          font-size="26" font-weight="800" fill="#0B1220">PDF</text>
  </g>

  <!-- Wand + sparkles -->
  <g>
    <!-- Wand stick -->
    <path d="M228 292 L348 212"
          stroke="#0B1220" stroke-width="22" stroke-linecap="round"/>
    <path d="M234 292 L348 216"
          stroke="#FFFFFF" stroke-opacity="0.22" stroke-width="6" stroke-linecap="round"/>
    <!-- Wand handle cap -->
    <circle cx="222" cy="296" r="10" fill="#0B1220"/>
    <circle cx="222" cy="296" r="4.5" fill="#60A5FA" opacity="0.95"/>

    <!-- Wand tip star -->
    <path d="M360 188 l10 22 22 10-22 10-10 22-10-22-22-10 22-10z"
          fill="#93C5FD" opacity="0.95"/>
    <circle cx="360" cy="188" r="5" fill="#34D399" opacity="0.9"/>

    <!-- Small sparkles -->
    <path d="M404 220 l6 12 12 6-12 6-6 12-6-12-12-6 12-6z"
          fill="#60A5FA" opacity="0.75"/>
    <path d="M380 130 l5 10 10 5-10 5-5 10-5-10-10-5 10-5z"
          fill="#E0F2FE" opacity="0.8"/>
  </g>
</svg>

